#!OML:ASF X:\für Bonn\!DataBase\2005_08_10_Bjorn_Final\c3d\bjorn.ASF
:FULLY-SPECIFIED
:DEGREES
184
root -0.831879 18.2414 15.041 -545.436 23.2996 -535.79
lowerback -0.58359 1.7585 9.22864
upperback 10.45 2.82134 -1.30913
thorax 12.2186 2.74954 -6.19566
lowerneck -6.02928 3.87356 8.32698
upperneck -0.231226 4.75581 -6.18792
head 1.37679 2.31646 -3.33529
rclavicle -1.41137e-014 6.75868e-015
rhumerus 45.0342 27.4005 -78.5304
rradius 79.7107
rwrist 27.5814
rhand -48.0413 37.4882
rfingers 7.12502
rthumb -20.7081 8.57303
lclavicle -1.41137e-014 6.75868e-015
lhumerus 19.1763 -27.7564 93.2719
lradius 85.0628
lwrist 39.2035
lhand -35.0602 -12.1881
lfingers 7.12502
lthumb -8.20291 17.6327
rfemur 362.179 -1.5748 -339.2
rtibia 36.1279
rfoot -32.1008 10.8067
rtoes -13.9152
lfemur -26.8034 -1.88603 -5.17108
ltibia 49.8124
lfoot -12.4749 7.70385
ltoes -15.7139
185
root -0.837761 18.2122 14.9907 -545.3 23.4229 -535.79
lowerback -0.393652 1.68486 9.20172
upperback 10.4909 2.74335 -1.23208
thorax 12.1253 2.70588 -6.10992
lowerneck -6.29841 3.987 8.3818
upperneck -0.573615 4.89314 -6.43171
head 1.33447 2.38226 -3.42164
rclavicle -3.77691e-015 3.97569e-016
rhumerus 44.9842 27.6585 -78.4252
rradius 80.391
rwrist 27.7851
rhand -48.1076 37.2198
rfingers 7.12502
rthumb -20.7718 8.31158
lclavicle -3.77691e-015 3.97569e-016
lhumerus 18.7157 -28.0199 93.5093
lradius 85.8571
lwrist 38.9576
lhand -35.5531 -11.9883
lfingers 7.12502
lthumb -8.67855 17.8133
rfemur 361.933 -1.11285 -339.11
rtibia 36.638
rfoot -32.4629 10.2526
rtoes -14.2436
lfemur -27.2456 -2.28537 -4.98513
ltibia 49.3052
lfoot -12.709 8.24302
ltoes -15.5684
186
root -0.843687 18.1787 14.9377 -545.129 23.5408 -535.721
lowerback -0.218326 1.60625 9.2323
upperback 10.515 2.64892 -1.1345
thorax 12.022 2.65611 -6.03564
lowerneck -6.59308 4.10454 8.43505
upperneck -0.818997 5.03465 -6.65151
head 1.32832 2.45037 -3.49857
rclavicle -3.32964e-014 1.11319e-014
rhumerus 44.9554 27.9051 -78.3229
rradius 81.0632
rwrist 28.0258
rhand -48.1774 36.8526
rfingers 7.12502
rthumb -20.8389 7.95174
lclavicle -3.32964e-014 1.11319e-014
lhumerus 18.3137 -28.2882 93.7429
lradius 86.7431
lwrist 38.7203
lhand -35.988 -11.6963
lfingers 7.12502
lthumb -9.09825 18.0875
rfemur 361.66 -0.745667 -338.992
rtibia 37.2176
rfoot -32.8424 9.78652
rtoes -14.6616
lfemur -27.7101 -2.71043 -4.69193
ltibia 48.8558
lfoot -12.8611 8.74186
ltoes -15.3871
187
root -0.849589 18.1391 14.8825 -544.934 23.6362 -535.584
lowerback -0.0621141 1.51374 9.29455
upperback 10.5455 2.52994 -1.00625
thorax 11.9342 2.59674 -5.94679
lowerneck -6.97068 4.24104 8.4732
upperneck -0.968116 5.19776 -6.8454
head 1.36937 2.52868 -3.56084
rclavicle 5.11871e-014 4.37326e-015
rhumerus 44.9803 28.151 -78.143
rradius 81.7461
rwrist 28.2047
rhand -48.3051 36.5599
rfingers 7.12502
rthumb -20.9616 7.67255
lclavicle 5.11871e-014 4.37326e-015
lhumerus 18.007 -28.5388 93.9894
lradius 87.594
lwrist 38.4226
lhand -36.314 -11.542
lfingers 7.12502
lthumb -9.41282 18.2278
rfemur 361.36 -0.514489 -338.855
rtibia 37.8643
rfoot -33.2136 9.41371
rtoes -15.2765
lfemur -28.2012 -3.15798 -4.29769
ltibia 48.485
lfoot -12.9458 9.1377
ltoes -15.4336
188
root -0.855796 18.0953 14.8244 -544.68 23.7419 -535.356
lowerback 0.0471003 1.41463 9.42958
upperback 10.5764 2.38984 -0.849506
thorax 11.8763 2.53324 -5.86768
lowerneck -7.45737 4.39871 8.51034
upperneck -0.988822 5.38323 -7.02901
head 1.47441 2.61633 -3.61577
rclavicle 3.02153e-014 -1.2921e-014
rhumerus 45.065 28.3946 -77.891
rradius 82.4554
rwrist 28.2869
rhand -48.43 36.3322
rfingers 7.12502
rthumb -21.0815 7.45821
lclavicle 3.02153e-014 -1.2921e-014
lhumerus 17.8077 -28.7833 94.1694
lradius 88.4258
lwrist 38.1061
lhand -36.6424 -11.4081
lfingers 7.12502
lthumb -9.7296 18.3472
rfemur 361.013 -0.283731 -338.631
rtibia 38.5786
rfoot -33.6126 9.02801
rtoes -15.8773
lfemur -28.7298 -3.59998 -3.77511
ltibia 48.2114
lfoot -12.9664 9.46234
ltoes -15.653
